<svg width="0" height="0" class="hidden">
  <symbol xmlns="http://www.w3.org/2000/svg" fill="#000000" viewBox="0 0 24 24" id="arrow">
    <path d="M8 6.82v10.36c0 .79.87 1.27 1.54.84l8.14-5.18c.62-.39.62-1.29 0-1.69L9.54 5.98C8.87 5.55 8 6.03 8 6.82z"></path>
  </symbol>
  <symbol xmlns="http://www.w3.org/2000/svg" viewBox="0 0 36 36" id="avocado">
    <path fill="#3E721D" d="M35 5.904c2.394 6.042-1.438 20.543-10.5 26.5c-9.06 5.957-20.395 3.573-23.097-6.443c-1.669-6.186 2.79-10.721 11.851-16.677C22.315 3.327 32.64-.053 35 5.904z"></path>
    <path fill="#3E721D" d="M20.605 26.03c-6.523 4.546-15.287 5.15-18.469.582c-3.183-4.566.418-12.578 6.943-17.124c6.522-4.545 21.951-9.796 25.134-5.23c3.183 4.57-7.085 17.226-13.608 21.772"></path>
    <path fill="#A6D388" d="M19.815 26.578c-5.757 4.013-13.482 3.097-16.29-.934C.718 21.613 4 14.474 9.757 10.463c5.755-4.011 20.258-9.264 23.068-5.234c2.807 4.03-4.825 16.175-13.01 21.349"></path>
    <path fill="#C6E5B3" d="M18.169 23.926c-4.506 3.14-9.939 3.127-12.136-.027c-2.2-3.154-.33-8.255 4.176-11.395c4.507-3.141 15.835-7.238 18.035-4.084c2.199 3.154-5.567 12.366-10.075 15.506z"></path>
    <path fill="#662113" d="M11.162 12.488c3.48-2.332 7.382-1.495 9.798.995c1.433 1.477-.88 5.382-4.359 7.714c-3.478 2.33-7.769 1.763-8.239.731c-1.44-3.157-.677-7.109 2.8-9.44z"></path>
    <path fill="#7C3225" d="M13.071 13.106c1.51-1.013 3.414-.819 4.254.431c.837 1.251.294 3.087-1.217 4.1c-1.51 1.01-3.414.817-4.253-.433c-.839-1.252-.294-3.086 1.216-4.098z"></path>
  </symbol>
  <symbol xmlns="http://www.w3.org/2000/svg" viewBox="0 0 36 36" id="backpack">
    <path fill="#C1694F" d="M11.946 27C-1.036 7.876 7.524 2.752 9.114 2c.149-.07.242-.105.245-.107A.998.998 0 0 0 9.888.768A1.01 1.01 0 0 0 8.903 0H4.847C1.054 0-4.282 11 5.859 28c.151.253 5.073 0 5.073 0c.559 0 1.324-.541 1.014-1zM31.229 0h-4a1 1 0 0 0-.45 1.893c.004.002.095.037.242.107c1.568.752 10.01 5.876-2.792 25c-.307.459.448 1 1 1c0 0 4.854.253 5.002 0c10-17 4.739-28 .998-28z"></path>
    <path fill="#662113" d="m6.889 28.836l.004.01c-.064-.293 5.363-1.387 5.053-1.846C-1.036 7.876 7.524 2.752 9.114 2H4.845C1.053 2-3.268 13 6.889 28.836zM31.231 2h-4.21c1.568.752 10.01 5.876-2.792 25c-.307.459 4.984 1.839 4.986 1.836C39.231 13 34.971 2 31.231 2z"></path>
    <path fill="#C1694F" d="M9.916 8a1.007 1.007 0 0 1-1.015-1c0-3.316-2.028-5-4.056-5c-.47 0-.08-.782.029-1.232c.11-.45.516-.768.985-.768h5.071c3.791 0 4.938 6.136 5.057 6.835a.993.993 0 0 1-.226.811a1.026 1.026 0 0 1-.775.354h-5.07zm16.315 0a1 1 0 0 0 1-1c0-3.316 2-5 4-5c.463 0 .078-.782-.029-1.232A.998.998 0 0 0 30.231 0h-5c-3.738 0-4.869 6.136-4.986 6.835A.999.999 0 0 0 21.231 8h5z"></path>
    <path fill="#BE1931" d="M6 32s0 4 4 4h16s4 0 4-4V10s0-4-4-4H10c-4 0-4 4-4 4v22z"></path>
    <path fill="#A0041E" d="M24 28H12c-2.201 0-3-1.794-3-3V11a1 1 0 0 1 2 0v14c.012.45.195 1 1 1h12c.45-.012 1-.194 1-1V11a1 1 0 1 1 2 0v14c0 2.201-1.794 3-3 3z"></path>
    <path fill="#FFF" d="M16 25s0-1 1-1h2s1 0 1 1v5s0 1-1 1h-2s-1 0-1-1v-5z"></path>
  </symbol>
  <symbol xmlns="http://www.w3.org/2000/svg" viewBox="0 0 36 36" id="bear">
    <circle cx="7" cy="6" r="6" fill="#C1694F"></circle>
    <circle cx="29" cy="6" r="6" fill="#C1694F"></circle>
    <circle cx="7" cy="6" r="4" fill="#E6AAAA"></circle>
    <circle cx="29" cy="6" r="4" fill="#E6AAAA"></circle>
    <path fill="#C1694F" d="M35 22S33.692 0 18 0S1 22 1 22c0 5.872 4.499 10.323 12.216 11.61a5.982 5.982 0 0 0 9.568 0C30.501 32.323 35 27.872 35 22z"></path>
    <circle cx="18" cy="30" r="4" fill="#DD2E44"></circle>
    <path fill="#D99E82" d="M18 20S7 23.687 7 27a6 6 0 0 0 11 3.315A6 6 0 0 0 29 27c0-3.313-11-7-11-7z"></path>
    <path fill="#272B2B" d="M11 17s0-2 2-2s2 2 2 2v2s0 2-2 2s-2-2-2-2v-2zm10 0s0-2 2-2s2 2 2 2v2s0 2-2 2s-2-2-2-2v-2zm-7.875 8c-1.624 1 3.25 4 4.875 4s6.499-3 4.874-4s-8.124-1-9.749 0z"></path>
  </symbol>
  <symbol xmlns="http://www.w3.org/2000/svg" viewBox="0 0 36 36" id="cheese-wedge">
    <path fill="#FFAC33" d="m11.792 6.062l-.011 3.324L17.129 8l-2.936-2zm21.458 17.42c0-1.138.761-2.071 1.75-2.238V9.585c-4-.962-34 7.191-34 7.191v3.536c1.564.294 2.75 1.662 2.75 3.312S2.564 26.644 1 26.938v7.716l34-6.482v-2.451c-.989-.168-1.75-1.102-1.75-2.239z"></path>
    <path fill="#FFD983" d="m15.585 2.242l-3.843 3.843c.737.172 1.258.591 1.258 1.082c0 .645-.896 1.167-2 1.167c-.474 0-.903-.1-1.245-.26L1 16.828c13.167-2.911 22.042-5.286 34.1-7.226c-4.862-6.482-16.273-7.36-19.515-7.36z"></path>
    <path fill="#FFAC33" d="M20 5.167c0 .645-.896 1.167-2 1.167s-2-.522-2-1.167S16.896 4 18 4s2 .522 2 1.167zm-4.928 6.395c0 .978-1.359 1.771-3.036 1.771S9 12.54 9 11.562c0-.977 1.359-1.771 3.036-1.771c1.676.001 3.036.794 3.036 1.771zM29 8.352c0 1.094-1.521 1.981-3.396 1.981s-3.396-.887-3.396-1.981s1.521-1.981 3.396-1.981S29 7.258 29 8.352z"></path>
    <path fill="#F4900C" d="M33.625 15.62c0 1.332-.979 2.411-2.188 2.411s-2.188-1.079-2.188-2.411s.979-2.411 2.188-2.411s2.188 1.079 2.188 2.411zm-22.25 4.862c0 1.255-.923 2.272-2.062 2.272c-1.139 0-2.062-1.018-2.062-2.272c0-1.256.923-2.273 2.062-2.273c1.139 0 2.062 1.018 2.062 2.273zm17.156 4.98c-.503.602-1.355.72-1.903.262c-.547-.457-.582-1.317-.077-1.919c.505-.605 1.356-.722 1.903-.265c.548.458.582 1.317.077 1.922zm-9.684-7.378c-.677.811-1.825.97-2.562.353c-.736-.615-.783-1.773-.104-2.583c.68-.814 1.826-.971 2.562-.356c.737.616.784 1.773.104 2.586zm.873 10.015c-1.2 1.604-3.354 2.021-4.808.933c-1.455-1.088-1.663-3.272-.463-4.875c1.2-1.605 3.354-2.022 4.808-.935c1.455 1.088 1.663 3.272.463 4.877z"></path>
  </symbol>
  <symbol xmlns="http://www.w3.org/2000/svg" viewBox="0 0 36 36" id="cherries">
    <path fill="#77B255" d="M25.999 24a.996.996 0 0 1-.572-.181C18.884 19.239 13.261 11.453 10.03 6.38c1.699 10.528.997 16.458.962 16.744a1 1 0 0 1-1.984-.247c.009-.079.936-8.033-1.986-21.668a1 1 0 0 1 1.86-.68c.079.148 8.007 14.873 17.691 21.652A1 1 0 0 1 25.999 24z"></path>
    <path fill="#5C913B" d="M26.547 8.818c-3.476.96-5.051 2.546-10.749.667c-4.72-1.557-7.037-4.207-6.345-6.305c.692-2.098 3.18-3.163 7.9-1.606c4.749 1.567 4.123 3.466 9.194 7.244z"></path>
    <circle cx="26" cy="28" r="8" fill="#BE1931"></circle>
    <circle cx="11" cy="28" r="8" fill="#BE1931"></circle>
  </symbol>
  <symbol xmlns="http://www.w3.org/2000/svg" viewBox="0 0 36 36" id="chocolate-bar">
    <path fill="#C1694F" d="M26.339 33.496a4.002 4.002 0 0 1-5.657 0L1.59 14.404c-1.562-1.562-1.562-2.681 0-4.243l8.485-8.485c1.562-1.562 2.681-1.562 4.243 0L33.41 20.768a4 4 0 0 1 0 5.657l-7.071 7.071z"></path>
    <path fill="#8A4B38" d="m16.582 15.253l-4.885-4.885l5.657-5.657l-1.415-1.414l-5.656 5.657L6.54 5.211L5.126 6.626l3.743 3.742l-5.657 5.657l1.414 1.414l5.657-5.657l4.885 4.885z"></path>
    <path fill="#DD2E44" d="M26.339 34.91a4 4 0 0 1-5.657 0l-9.899-9.899l14.142-14.142l9.899 9.899a4 4 0 0 1 0 5.657l-8.485 8.485z"></path>
    <path fill="#BE1931" d="m12.825 27.053l4.673 4.674l7.955-20.33l-.528-.529l-1.504-.932z"></path>
    <path fill="#CCD6DD" d="m22.804 8.747l2.121 2.121c-.707 2.122-8.485 15.557-9.9 18.385c0 0-.707 2.121-2.475.354l-5.304-5.304c-.679-.679-.685-2.142 0-2.828L19.975 8.747c1.414-1.414 2.829 0 2.829 0z"></path>
  </symbol>
  <symbol xmlns="http://www.w3.org/2000/svg" viewBox="0 0 36 36" id="cookie">
    <path fill="#DA9F83" d="M34.966 17.87c.414 4.649-2.082 8.731-4.831 12.206c-2.304 2.554-5.602 3.631-8.901 4.285c-3.198 1.089-6.766.739-9.716-.895c-1.034-.43-2.248-.559-3.167-1.176c-2.879-1.846-4.524-4.927-5.779-8.029c-1.627-2.916-1.74-6.483-1.414-9.742c.219-1.107.967-2.032 1.388-3.051c.729-2.127 1.916-3.963 3.569-5.475c.786-.787 1.377-1.823 2.303-2.444c.919-.617 2.103-.758 3.137-1.188c1.016-.422 1.968-1.08 3.072-1.299c1.072-.213 2.201.106 3.335.106c2.235-.056 4.482.148 6.575.789c1.034.43 1.781 1.38 2.7 1.997c.926.622 1.999 1.04 2.784 1.827c1.603 1.566 2.984 3.411 3.94 5.446c.65 2.109.957 4.389 1.005 6.643z"></path>
    <path fill="#8A4B38" d="M22.638 16.947a2.245 2.245 0 0 1 1.386 4.271c-1.181.384-3.871.201-4.255-.978c-.383-1.181 1.687-2.911 2.869-3.293zm8.57-.672a1.069 1.069 0 1 1-1.638-1.377c.381-.451 1.514-1.057 1.966-.677c.453.381.053 1.601-.328 2.054zm-22-7A1.069 1.069 0 1 1 7.57 7.898c.381-.451 1.514-1.057 1.966-.677c.453.381.053 1.601-.328 2.054zm12.093-1.894a1.607 1.607 0 1 1 1.732-2.71c.749.479 1.872 2.05 1.394 2.798c-.48.75-2.377.392-3.126-.088zm-7.926 6.217a2.145 2.145 0 1 1 3.869-1.856c.513 1.07.682 3.643-.387 4.154c-1.071.514-2.971-1.227-3.482-2.298zm1.024 14.099a1.92 1.92 0 0 1 2.672-.492c.874.605 1.094 1.801.49 2.675s-2.528 2.147-3.4 1.544c-.875-.604-.366-2.854.238-3.727zm10.013-.406a1.473 1.473 0 1 1 1.586-2.481c.686.438 1.715 1.878 1.276 2.562c-.438.688-2.176.359-2.862-.081zM5.536 18.42a2.069 2.069 0 1 1 3.084 2.759c-.763.854-2.992 1.955-3.843 1.191c-.854-.763-.005-3.099.759-3.95z"></path>
  </symbol>
  <symbol xmlns="http://www.w3.org/2000/svg" viewBox="0 0 36 36" id="cupcake">
    <path fill="#BBDDF5" d="M5 21.875s1.589 5.727 2 8.482c.464 3.111 3.571 5.571 11 5.571s10.536-2.461 11-5.571c.411-2.755 2-8.482 2-8.482H5z"></path>
    <path fill="#662113" d="M5.094 21.969c.25 1.219.694 1.994 1.344 1.594c.65-.4 1.65-.193 1.344.625c-.281.75.969 1.094 1.5.656c.509-.419 1.555-.881 1.656.062c.094.875 1.168 1.11 1.656.469c.5-.656 1.875-.394 2.125.406s1.594.688 1.969.125c.355-.533.713-.885 1.312-.885V25c.6 0 .957.373 1.312.906c.375.562 1.719.675 1.969-.125s1.625-1.062 2.125-.406c.489.641 1.562.406 1.656-.469c.101-.943 1.147-.482 1.656-.062c.531.438 1.781.094 1.5-.656c-.307-.818.694-1.025 1.344-.625c.65.4 1.094-.375 1.344-1.594H5.094z"></path>
    <path fill="#C1694F" d="M33 18.969c0-4.919-6.731-8.906-15.033-8.906c-8.303 0-15.033 3.987-15.033 8.906c0 3.969 9 6.031 15.033 6.031S33 23 33 18.969z"></path>
    <path fill="#88C9F9" d="M18 35.5a.5.5 0 0 1-.5-.5v-8.646a.5.5 0 0 1 1 0V35a.5.5 0 0 1-.5.5zm-6.699-1.268a.501.501 0 0 1-.496-.436l-1.031-7.982a.502.502 0 0 1 .432-.561a.497.497 0 0 1 .56.432l1.031 7.982a.502.502 0 0 1-.496.565zm3.179.976a.5.5 0 0 1-.498-.459l-.708-8.521a.5.5 0 1 1 .997-.082l.708 8.521a.5.5 0 0 1-.457.539l-.042.002zm-5.959-3.041a.375.375 0 0 1-.367-.301l-1.5-7.438a.374.374 0 0 1 .293-.441c.198-.048.4.09.442.293l1.5 7.438a.374.374 0 0 1-.368.449zm16.1 1.952a.5.5 0 0 1-.496-.571l1.13-7.869a.507.507 0 0 1 .566-.424a.5.5 0 0 1 .424.566l-1.13 7.869a.5.5 0 0 1-.494.429zm-3.042 1.089l-.042-.002a.5.5 0 0 1-.457-.539l.708-8.521c.022-.276.292-.474.539-.457a.5.5 0 0 1 .457.539l-.708 8.521a.499.499 0 0 1-.497.459zm5.983-3a.374.374 0 0 1-.368-.445l1.438-7.479a.374.374 0 1 1 .736.14l-1.438 7.479a.374.374 0 0 1-.368.305z"></path>
    <path fill="#FFE8B6" d="M16.912-.011s1.087 1.144 2.175 1.167c2.268.049 4.355 1.315 4.355 3.506c0 0 5.261 0 5.443 4.674c0 0 2.655.045 3.263 4.672c.454 3.456-3.038 8.227-14.148 8.178c-9.795-.043-14.806-3.524-14.148-8.176c.634-4.48 4.354-4.673 4.354-4.673s-.636-5.843 6.529-5.842c0 0 .726-2.337 2.177-3.506z"></path>
    <path fill="#FFCC4D" d="M17.91 10.504c2.936-1.108 5.623-3.115 5.533-5.841c0-.858-.327-1.568-.852-2.125c.643 2.808-3.651 6-8.399 6.506c-5.941.633-5.261-2.872-5.261-2.872l-.007.007c-.883 1.536-.717 3.159-.717 3.159c.905 2.383 5.576 2.724 9.703 1.166z"></path>
    <path fill="#FFCC4D" d="M28.885 9.337c-.006-.143-.03-.268-.045-.402c-.116-.677-.453-1.506-.774-2.138c-.19-.265-.4-.499-.63-.702c1.109 4.426-5.563 9.749-11.93 10.982c-8.299 1.606-11.654-3.065-11.654-3.065c-.342 2.415.858 4.509 3.449 5.976c10.227 4.169 21.673-6.095 21.584-10.651z"></path>
    <path fill="#DD2E44" d="m8.689 14.201l-1.181 1.614a1.003 1.003 0 0 1-1.398.216a1.003 1.003 0 0 1-.216-1.398l1.181-1.614a1.003 1.003 0 0 1 1.398-.216c.444.325.541.954.216 1.398z"></path>
    <path fill="#55ACEE" d="m14.935 8.187l-1.956-.419a1.002 1.002 0 0 1-.768-1.187c.115-.538.65-.884 1.187-.768l1.956.419c.538.115.884.65.768 1.187a1.001 1.001 0 0 1-1.187.768z"></path>
    <path fill="#77B255" d="m16.431 14.173l1.313 1.509c.361.415.317 1.05-.098 1.411a1.003 1.003 0 0 1-1.411-.098l-1.313-1.509a1.003 1.003 0 0 1 .098-1.411a1.003 1.003 0 0 1 1.411.098z"></path>
    <path fill="#F4900C" d="m24.372 11.499l-1.871.707a1.003 1.003 0 0 1-1.289-.582a1.003 1.003 0 0 1 .582-1.289l1.871-.707a1.003 1.003 0 0 1 1.289.582a1.003 1.003 0 0 1-.582 1.289z"></path>
    <path fill="#AA8DD8" d="m30.366 14.051l-1 1.732c-.275.476-.89.641-1.366.366a1.003 1.003 0 0 1-.366-1.366l1-1.732c.275-.476.89-.641 1.366-.366c.476.275.641.889.366 1.366z"></path>
  </symbol>
  <symbol xmlns="http://www.w3.org/2000/svg" viewBox="0 0 36 36" id="deciduous-tree">
    <path fill="#662113" d="M22 33c0 2.209-1.791 3-4 3s-4-.791-4-3l1-9c0-2.209.791-2 3-2s3-.209 3 2l1 9z"></path>
    <path fill="#5C913B" d="M34 17c0 8.837-7.163 12-16 12c-8.836 0-16-3.163-16-12C2 8.164 11 0 18 0s16 8.164 16 17z"></path>
    <g fill="#3E721D">
      <ellipse cx="6" cy="21" rx="2" ry="1"></ellipse>
      <ellipse cx="30" cy="21" rx="2" ry="1"></ellipse>
      <ellipse cx="10" cy="25" rx="2" ry="1"></ellipse>
      <ellipse cx="14" cy="22" rx="2" ry="1"></ellipse>
      <ellipse cx="10" cy="16" rx="2" ry="1"></ellipse>
      <ellipse cx="7" cy="12" rx="2" ry="1"></ellipse>
      <ellipse cx="29" cy="12" rx="2" ry="1"></ellipse>
      <ellipse cx="14" cy="10" rx="2" ry="1"></ellipse>
      <ellipse cx="22" cy="10" rx="2" ry="1"></ellipse>
      <ellipse cx="26" cy="16" rx="2" ry="1"></ellipse>
      <ellipse cx="18" cy="17" rx="2" ry="1"></ellipse>
      <ellipse cx="22" cy="22" rx="2" ry="1"></ellipse>
      <ellipse cx="18" cy="26" rx="2" ry="1"></ellipse>
      <ellipse cx="26" cy="25" rx="2" ry="1"></ellipse>
    </g>
  </symbol>
  <symbol xmlns="http://www.w3.org/2000/svg" viewBox="0 0 36 36" id="fox">
    <path fill="#F4900C" d="M13.431 9.802c.658 2.638-8.673 10.489-11.244 4.098C.696 10.197-.606 2.434.874 2.065c1.48-.368 11.9 5.098 12.557 7.737z"></path>
    <path fill="#A0041E" d="M11.437 10.355c.96 1.538-1.831 4.561-3.368 5.522c-1.538.961-2.899-.552-4.414-4.414c-.662-1.689-1.666-6.27-1.103-6.622c.562-.351 7.924 3.976 8.885 5.514z"></path>
    <path fill="#F4900C" d="M22.557 9.802C21.9 12.441 31.23 20.291 33.802 13.9c1.49-3.703 2.792-11.466 1.312-11.835c-1.48-.368-11.899 5.098-12.557 7.737z"></path>
    <path fill="#A0041E" d="M24.552 10.355c-.96 1.538 1.831 4.561 3.368 5.522c1.537.961 2.898-.552 4.413-4.414c.662-1.688 1.666-6.269 1.104-6.621c-.563-.352-7.924 3.975-8.885 5.513z"></path>
    <path fill="#F18F26" d="M32.347 26.912c0-.454-.188-1.091-.407-1.687c.585.028 1.519.191 2.77.817a4.003 4.003 0 0 0-.273-1.393c.041.02.075.034.116.055c-1.103-3.31-3.309-5.517-3.309-5.517h2.206c-2.331-4.663-4.965-8.015-8.075-9.559c-1.39-.873-3.688-1.338-7.373-1.339h-.003c-3.695 0-5.996.468-7.385 1.346c-3.104 1.547-5.734 4.896-8.061 9.552H4.76s-2.207 2.206-3.311 5.517c.03-.015.055-.025.084-.04a2.685 2.685 0 0 0-.282 1.377c1.263-.632 2.217-.792 2.813-.818c-.189.513-.343 1.044-.386 1.475a3.146 3.146 0 0 0-.135 1.343C6.75 26.584 8.25 26.792 10 27.667C11.213 31.29 14.206 34 18.001 34c3.793 0 6.746-2.794 7.958-6.416c1.458-1.25 3.708-.875 6.416.416a2.843 2.843 0 0 0-.036-1.093l.008.005z"></path>
    <path fill="#FFD983" d="M31.243 23.601c.006 0 1.108.003 3.309 1.103c-1.249-2.839-7.525-4.07-9.931-3.291c-1.171 1.954-1.281 5.003-3.383 6.622c-1.741 1.431-4.713 1.458-6.479 0c-2.345-1.924-2.559-5.813-3.382-6.622c-2.407-.781-8.681.454-9.931 3.291c2.201-1.101 3.304-1.103 3.309-1.103c0 .001-1.103 2.208-1.103 3.311l.001-.001v.001c2.398-1.573 5.116-2.271 7.429-.452c1.666 7.921 12.293 7.545 13.833 0c2.314-1.818 5.03-1.122 7.429.452v-.001l.001.001c.002-1.103-1.101-3.311-1.102-3.311z"></path>
    <path fill="#272B2B" d="M11 17s0-1.5 1.5-1.5S14 17 14 17v1.5s0 1.5-1.5 1.5s-1.5-1.5-1.5-1.5V17zm11 0s0-1.5 1.5-1.5S25 17 25 17v1.5s0 1.5-1.5 1.5s-1.5-1.5-1.5-1.5V17zm-7.061 10.808c-1.021.208 2.041 3.968 3.062 3.968c1.02 0 4.082-3.76 3.062-3.968c-1.021-.208-5.103-.208-6.124 0z"></path>
  </symbol>
  <symbol fill="none" xmlns="http://www.w3.org/2000/svg" viewBox="0 0 97 64" id="logo">
    <path d="M70.625 0.15625H74.8438C86.3438 0.15625 93.2188 4.0625 95.4688 11.875C96.1875 14.4062 96.5469 17.3281 96.5469 20.6406V64H70.625V0.15625ZM35.8438 0.15625H61.9062V64H35.8438V0.15625ZM0.96875 0.15625H27.0312V64H0.96875V0.15625Z" fill="black"></path>
  </symbol>
  <symbol xmlns="http://www.w3.org/2000/svg" viewBox="0 0 36 36" id="pick">
    <g fill="#F4900C">
      <path d="M29.185 33.279c1.166 1.166 3.022 1.221 4.121.121c1.1-1.1 1.045-2.955-.121-4.121L9.921 6.014C8.754 4.847 6.899 4.792 5.8 5.893c-1.101 1.1-1.046 2.955.121 4.121l23.264 23.265z"></path>
      <path d="M3.415 7.657a2 2 0 0 1 0-2.829l1.414-1.414a2 2 0 0 1 2.828 2.829L6.243 7.657a2 2 0 0 1-2.828 0z"></path>
    </g>
    <path fill="#66757F" d="M23 1C21.143.257 12-2 5 5S.257 21.143 1 23c2 5 1.671-1.063 2-3c1.015-5.971 3.822-9.178 5.822-11.178S14.051 4.029 20 3c1.921-.332 8 0 3-2z"></path>
  </symbol>
  <symbol xmlns="http://www.w3.org/2000/svg" viewBox="0 0 36 36" id="pineapple">
    <path fill="#5C913B" d="M18.241 9.633c-.277-3.307 2.17-4.72 2.17-4.72c-3.199.113-4.894 2.826-4.894 2.826c-.752-1.3.946-4.012 2.169-4.719c-3.198.113-3.67 2.12-3.67 2.12c-1.503-2.601-1.03-4.607-1.03-4.607c-1.121.647-1.767 2.113-2.141 3.512l-2.318-2.67c-.23 1.044.157 3.174.573 4.959c-3.055-1.79-5.903-.15-5.903-.15c3.95 1.188 5.45 3.788 5.45 3.788s-3.948-1.187-5.646 1.526c2.597-.092 4.5.499 5.856 1.23c-1.163.289-3.145-.236-4.355 1.371c0 0 3.198-.113 3.851 1.055c-2.172.614-3.575 2.251-3.575 2.251c4.422-.818 9.123 1.669 9.123 1.669l6.119-3.532c-1.029-4.607 2.642-6.727 2.642-6.727c-2.724-1.895-4.421.818-4.421.818z"></path>
    <path fill="#FFAC33" d="M29.56 22.88c2.488 4.309 1.218 9.7-2.837 12.041c-4.055 2.341-9.359.746-11.846-3.562l-1.589-2.753c-2.488-4.31-1.217-9.699 2.837-12.04c4.055-2.341 9.359-.747 11.846 3.562l1.589 2.752z"></path>
    <path fill="#FFCC4D" d="M30.562 25.364a9.5 9.5 0 0 0-1.002-2.484l-.186-.323v.001l-1.951-.828l.624-1.471l-.075-.131c-2.025-3.51-5.92-5.217-9.486-4.466l-.818 1.926l-1.884-.8c-3.28 2.122-4.567 6.319-3.262 10.128l1.006.427l-.401.946c.055.105.102.212.163.315l1.589 2.753a9.417 9.417 0 0 0 2.618 2.909l.229-.538l1.951.828l-.324.764a8.785 8.785 0 0 0 2.061.572l.215-.507l1.403.595a8.014 8.014 0 0 0 3.343-.883l-.017-.007l.828-1.951l1.189.504a8.218 8.218 0 0 0 1.334-1.736l-1.693-.72l.828-1.951l1.667.707c.191-.7.301-1.427.316-2.167l-1.155-.49l.828-1.951l.062.029zm-6.212-7.243l1.95.829l-.828 1.95l-1.951-.828l.829-1.951zm.294 4.731l-.828 1.95l-1.951-.827l.828-1.951l1.951.828zm-4.197-6.387l1.951.828l-.829 1.952l-1.951-.828l.829-1.952zm-1.656 3.902l1.951.828l-.828 1.951l-1.95-.828l.827-1.951zm-3.902-1.655l1.95.828l-.828 1.949l-1.95-.828l.828-1.949zm-2.484 5.853l.828-1.952l1.951.828l-.829 1.952l-1.95-.828zm4.196 6.385l-1.951-.827l.828-1.951l1.951.828l-.828 1.95zm-.295-4.73l.829-1.951l1.951.827l-.829 1.952l-1.951-.828zm4.196 6.386l-1.95-.828l.828-1.95l1.95.829l-.828 1.949zm-.294-4.73l.828-1.952l1.951.829l-.828 1.952l-1.951-.829zm4.197 6.388l-1.951-.828l.828-1.951l1.951.828l-.828 1.951zm1.657-3.904l-1.95-.827l.828-1.952l1.95.828l-.828 1.951zm1.656-3.901l-1.951-.828l.828-1.95l1.951.827l-.828 1.951z"></path>
  </symbol>
  <symbol xmlns="http://www.w3.org/2000/svg" viewBox="0 0 36 36" id="potato">
    <path fill="#D99E82" d="M.25 13c0-7.158 10-15 18-8c2.714 2.375 5 4 5 7c12-2 13.703 8.892 12 14c-1 3-5.868 11.059-24 3c-9-4-11-11.616-11-16z"></path>
    <path fill="#C1694F" d="M17.71 14.822c1.827-1.737 3.628-2.498 5.649-2.838l-.109.015c0-.858-.204-1.597-.534-2.28c-2.074.772-4.288 2.281-5.006 5.103z"></path>
    <circle cx="10.25" cy="16" r="1" fill="#C1694F"></circle>
    <circle cx="30.25" cy="26" r="1" fill="#C1694F"></circle>
    <circle cx="14.75" cy="25.5" r="1.5" fill="#C1694F"></circle>
    <circle cx="5.75" cy="19.5" r="1.5" fill="#C1694F"></circle>
  </symbol>
  <symbol xmlns="http://www.w3.org/2000/svg" viewBox="0 0 36 36" id="red-apple">
    <path fill="#DD2E44" d="M24 7c-3 0-3 1-6 1s-3-1-6-1c-4 0-9 2-9 9c0 11 6 20 10 20c3 0 3-1 5-1s2 1 5 1c4 0 10-9 10-20c0-7.001-5-9-9-9z"></path>
    <path fill="#77B255" d="M19 7s3-4 8-4c4 0 6 2 6 2s-4 3-7 3s-7-1-7-1z"></path>
    <path fill="#662113" d="M18 10a1 1 0 0 1-1-1c0-3.441 1.2-6.615 3.293-8.707a.999.999 0 1 1 1.414 1.414C19.986 3.427 19 6.085 19 9a1 1 0 0 1-1 1z"></path>
  </symbol>
  <symbol xmlns="http://www.w3.org/2000/svg" viewBox="0 0 36 36" id="rice-ball">
    <path fill="#EEE" d="M35 26c0 9.389-7.609 9-17 9s-17 .389-17-9C1 18 9 7 14 3c2.75-2 5.129-2.051 8 0c7 5 13 18 13 23z"></path>
    <path fill="#CCD6DD" d="M27.258 29.642a1.012 1.012 0 0 1-1.144-1.669l1.67-1.144a1.01 1.01 0 0 1 1.142 1.668l-1.668 1.145zm2.438-7.095a1 1 0 1 1 .755-1.852l1.852.755a1 1 0 1 1-.755 1.852l-1.852-.755zm-4.494-5.256a1.008 1.008 0 0 1-.555-1.318a1.01 1.01 0 0 1 1.316-.556l1.875.764a1.012 1.012 0 0 1-.764 1.873l-1.872-.763zm-21.001 7a1.012 1.012 0 0 1 .763-1.874l1.873.764a1.012 1.012 0 0 1-.762 1.874l-1.874-.764zm3.557-6.149a1.011 1.011 0 0 1-1.144-1.669l1.67-1.144a1.01 1.01 0 1 1 1.142 1.669l-1.668 1.144zm9.028 3.739a1.5 1.5 0 1 1 1.132-2.779l2.778 1.134a1.499 1.499 0 1 1-1.132 2.777l-2.778-1.132zm-6.184 6.052a1.011 1.011 0 1 1 .718 1.889l-1.892.721a1.008 1.008 0 0 1-1.302-.586c-.2-.524.062-1.107.585-1.307l1.891-.717z"></path>
    <path fill="#292F33" d="M24 21H12a2 2 0 0 0-2 2v11.812c2.384.224 5.107.188 8 .188s5.616.036 8-.188V23a2 2 0 0 0-2-2z"></path>
  </symbol>
  <symbol xmlns="http://www.w3.org/2000/svg" viewBox="0 0 36 36" id="softball">
    <circle cx="18" cy="18" r="18" fill="#E2EA55"></circle>
    <path fill="#BECA28" d="M31.802 29.546C28.792 28.221 27 24.048 27 18c0-6.048 1.792-10.221 4.802-11.546a18.116 18.116 0 0 0-1.428-1.504C27.406 6.605 25 10.578 25 18c0 7.421 2.406 11.395 5.374 13.05c.502-.477.984-.973 1.428-1.504zM11 18c0-7.421-2.406-11.395-5.374-13.049a17.94 17.94 0 0 0-1.428 1.503C7.208 7.78 9 11.952 9 18c0 6.048-1.792 10.22-4.802 11.546c.445.531.926 1.027 1.428 1.504C8.593 29.395 11 25.421 11 18z"></path>
    <path fill="#DD2E44" d="M5.258 10.164c-.237 0-.457-.02-.651-.056a1 1 0 0 1 .368-1.966c.43.077 2.691.006 3.148-2.276a1 1 0 0 1 1.961.393c-.582 2.912-3.139 3.905-4.826 3.905zm1.439 4.192c-.53-.022-.938-.363-.941-.899c-.003-.552.438-.893.99-.896c0 0 2.563.073 3.963-2.129a.995.995 0 0 1 1.38-.294c.466.296.603.921.307 1.387c-1.986 3.126-5.683 2.832-5.699 2.831zm2.216 4.876c-.733-.035-1.406-.202-1.907-.47a1 1 0 0 1 .942-1.764c.81.432 2.911.379 3.775-.832a1 1 0 1 1 1.629 1.161c-1.036 1.451-2.875 1.98-4.439 1.905zm1.498 5.533c-1.554 0-2.995-.699-3.926-1.476a1 1 0 1 1 1.28-1.537c.194.163 1.952 1.566 3.782.785a1 1 0 0 1 .781 1.841a4.85 4.85 0 0 1-1.917.387zm-.494 5.277h-.028c-2.504 0-4.679-1.57-5.534-3.108c-.269-.482-.094-1.044.388-1.312c.483-.27 1.092-.07 1.36.412c.484.871 1.996 2.134 3.841 2.185c.552.016.987.388.972.939c-.015.542-.459.884-.999.884zm16.417.52a1 1 0 0 1-.981-1.197c.664-3.322 3.894-4.15 5.478-3.849a1 1 0 0 1 .798 1.167a.994.994 0 0 1-1.167.798c-.425-.08-2.69-.007-3.147 2.276a1.002 1.002 0 0 1-.981.805zm-2.795-5.552a1 1 0 0 1-.455-1.67c2.608-2.629 4.694-2.181 6.074-1.885l.109.024a1 1 0 0 1-.416 1.956l-.113-.025c-1.179-.253-2.397-.515-4.234 1.337a.996.996 0 0 1-.965.263zm-.452-5.695a1 1 0 0 1-.551-1.666c1.786-1.915 5.028-1.629 6.478-.59a1 1 0 1 1-1.165 1.626c-.745-.535-2.836-.758-3.852.329a.997.997 0 0 1-.91.301zm5.704-5.253a.997.997 0 0 1-.64-.232c-.194-.162-1.952-1.559-3.781-.785a1.001 1.001 0 0 1-.782-1.841c2.219-.942 4.535-.001 5.844 1.09a1 1 0 0 1-.641 1.768zm1.939-3.979a1 1 0 0 1-.875-.514c-.484-.872-1.996-2.123-3.841-2.174c-.553-.015-.987-.506-.973-1.059c.016-.542.46-1.003.999-1.003h.028c2.505 0 4.68 1.694 5.534 3.232a1.017 1.017 0 0 1-.389 1.376a1 1 0 0 1-.483.142z"></path>
  </symbol>
  <symbol xmlns="http://www.w3.org/2000/svg" viewBox="0 0 36 36" id="taco">
    <path fill="#FFE8B6" d="M12 7C5.374 7 0 14.164 0 23h6v6h17.119c.564-1.854.881-3.877.881-6c0-8.836-5.373-16-12-16z"></path>
    <path fill="#FFE8B6" d="M29 21h4.896C33.156 13.11 28.118 7 22 7c-6.627 0-12 7.164-12 16c0 2.123.317 4.146.88 6H29v-8z"></path>
    <path fill="#FFAC33" d="M36 23c0-8.836-5.373-16-12-16c-6.626 0-12 7.164-12 16c0 2.123.317 4.146.88 6H30c3.314 0 6-2.685 6-6z"></path>
    <path fill="#FFAC33" d="M6 23h10v6H6z"></path>
    <path fill="#FFE8B6" d="M0 23a6 6 0 1 1 11.998.002A6 6 0 0 1 0 23z"></path>
    <path fill="#FFAC33" d="M14 7C7.374 7 2 14.164 2 23a4 4 0 1 0 8 0c0-6.963 3.342-12.871 8-15.069C16.747 7.339 15.405 7 14 7z"></path>
    <circle cx="4" cy="23" r="1" fill="#D99E82"></circle>
    <path fill="#C1694F" d="M9.975 23.25A1.497 1.497 0 0 0 8.5 22c-.18 0-.35.037-.51.095c.002-.033.01-.063.01-.095a2 2 0 0 0-4 0c0 .525.207 1 .539 1.357A1.49 1.49 0 0 0 4 24.5c0 .678.453 1.244 1.07 1.43c.167.557.651.962 1.241 1.039a3.976 3.976 0 0 0 3.664-3.719z"></path>
    <path fill="#D99E82" d="M9.5 21a1.5 1.5 0 0 0 0 3c.13 0 .254-.021.375-.053c.075-.305.125-.619.125-.947c0-.637.037-1.261.091-1.878A1.487 1.487 0 0 0 9.5 21z"></path>
    <ellipse cx="6.5" cy="20" fill="#FFCC4D" rx="1.5" ry="1"></ellipse>
    <circle cx="7" cy="21" r="1" fill="#FFCC4D"></circle>
    <circle cx="9" cy="21" r="1" fill="#C1694F"></circle>
    <circle cx="5" cy="22" r="1" fill="#D99E82"></circle>
    <circle cx="7" cy="22" r="1" fill="#D99E82"></circle>
    <circle cx="8" cy="20" r="1" fill="#FFD983"></circle>
    <circle cx="7" cy="18" r="1" fill="#FFE8B6"></circle>
    <circle cx="6" cy="20" r="1" fill="#FFE8B6"></circle>
    <circle cx="9" cy="18" r="1" fill="#FFD983"></circle>
    <circle cx="9" cy="20" r="1" fill="#FFD983"></circle>
    <circle cx="9" cy="19" r="1" fill="#FFD983"></circle>
    <circle cx="9" cy="19" r="1" fill="#FFE8B6"></circle>
    <path fill="#77B255" d="M10.572 12.453a1.496 1.496 0 0 0-2.545.782A1.423 1.423 0 0 0 7.25 13C6.56 13 6 13.448 6 14c0 .19.084.358.2.51A.762.762 0 0 0 6 15a1 1 0 0 0-1 1c0 .202.075.379.178.537A.746.746 0 0 0 5 17c0 .552.671 1 1.5 1c.43 0 .815-.122 1.089-.316c.254.195.567.316.911.316a1.5 1.5 0 0 0 .558-.11c.163.602.69 1.042 1.331 1.091c.495-2.544 1.45-4.835 2.738-6.72A2.483 2.483 0 0 0 12 12c-.56 0-1.065.174-1.428.453z"></path>
    <circle cx="8" cy="15" r="1" fill="#A6D388"></circle>
    <path fill="#A6D388" d="M10 13.5a.5.5 0 1 1-1 0a.5.5 0 0 1 1 0z"></path>
    <circle cx="6.5" cy="16.5" r=".5" fill="#A6D388"></circle>
    <path fill="#A6D388" d="M10 16.5a.5.5 0 1 1-1 0a.5.5 0 0 1 1 0z"></path>
    <circle cx="10" cy="15" r="1" fill="#A6D388"></circle>
    <circle cx="9" cy="12" r="1" fill="#DD2E44"></circle>
    <circle cx="11" cy="12" r="1" fill="#FFD983"></circle>
    <circle cx="12" cy="10" r="1" fill="#FFD983"></circle>
    <circle cx="9" cy="14" r="1" fill="#FFD983"></circle>
    <path fill="#A6D388" d="M15 9a1 1 0 0 0-1 1c0 .035.016.064.02.098A1.492 1.492 0 0 0 13.5 10a1.5 1.5 0 0 0-1.5 1.5c0 .561.311 1.043.767 1.301c.845-1.354 1.856-2.513 2.989-3.436A.984.984 0 0 0 15 9z"></path>
    <circle cx="12" cy="11" r="1" fill="#DD2E44"></circle>
    <circle cx="14" cy="9" r="1" fill="#DD2E44" transform="rotate(-80.781 14 9)"></circle>
    <circle cx="17" cy="25" r="1" fill="#F4900C"></circle>
    <circle cx="13" cy="28" r="1" fill="#F4900C"></circle>
    <circle cx="19" cy="28" r="1" fill="#F4900C"></circle>
    <circle cx="22" cy="27" r="1" fill="#F4900C"></circle>
    <circle cx="26" cy="27" r="1" fill="#F4900C"></circle>
    <circle cx="29" cy="28" r="1" fill="#F4900C"></circle>
    <circle cx="31" cy="26" r="1" fill="#F4900C"></circle>
    <circle cx="21" cy="22" r="1" fill="#F4900C"></circle>
    <circle cx="15" cy="22" r="1" fill="#F4900C"></circle>
    <circle cx="34" cy="24" r="1" fill="#F4900C"></circle>
    <circle cx="17" cy="18" r="1" fill="#F4900C"></circle>
    <circle cx="22" cy="16" r="1" fill="#F4900C"></circle>
    <path fill="#F4900C" d="M20 12a1 1 0 1 1-2 0a1 1 0 0 1 2 0z"></path>
    <circle cx="27" cy="13" r="1" fill="#F4900C"></circle>
    <circle cx="24" cy="10" r="1" fill="#F4900C"></circle>
    <circle cx="31" cy="19" r="1" fill="#F4900C"></circle>
    <circle cx="26" cy="19" r="1" fill="#F4900C"></circle>
    <circle cx="24" cy="23" r="1" fill="#F4900C"></circle>
    <circle cx="29" cy="22" r="1" fill="#F4900C"></circle>
  </symbol>
  <symbol xmlns="http://www.w3.org/2000/svg" viewBox="0 0 36 36" id="tangerine">
    <path fill="#F4900C" d="M3 19.5C3 10.388 10.387 3 19.499 3c9.113 0 16.5 7.387 16.5 16.5S28.612 36 19.499 36C10.387 36 3 28.613 3 19.5z"></path>
    <path fill="#662113" d="M11.414 7.585c-.267-.267-.797-.197-1.355.12c-3.3-2.732-8.653-3.652-8.895-3.692a1 1 0 0 0-.329 1.972c.053.009 4.934.854 7.821 3.16c-.275.525-.324 1.015-.07 1.268c.39.391 1.34.074 2.121-.707c.781-.78 1.097-1.73.707-2.121z"></path>
    <path fill="#5C913B" d="M21 1s-3.106 4.318-7.021 5.273C11 7 7.041 7.07 6.646 6.15c-.394-.919 1.572-3.937 4.969-5.393C15.012-.698 21 1 21 1z"></path>
  </symbol>
</svg>